<?xml version="1.0" standalone="no"?>
<!DOCTYPE svg PUBLIC "-//W3C//DTD SVG 20010904//EN"
 "http://www.w3.org/TR/2001/REC-SVG-20010904/DTD/svg10.dtd">
<svg version="1.0" xmlns="http://www.w3.org/2000/svg"
 width="1024.000000pt" height="1024.000000pt" viewBox="0 0 1024.000000 1024.000000"
 preserveAspectRatio="xMidYMid meet">

<g transform="translate(0.000000,1024.000000) scale(0.100000,-0.100000)"
fill="#000000" stroke="none">
<path d="M5230 9375 c-63 -13 -457 -92 -875 -175 -418 -83 -913 -182 -1099
-221 -187 -38 -441 -88 -565 -110 -295 -52 -300 -54 -408 -105 -187 -89 -304
-250 -360 -498 -24 -107 -22 -319 5 -422 44 -170 103 -277 204 -369 81 -72
189 -124 388 -184 91 -27 173 -53 183 -57 30 -11 35 -43 19 -113 -22 -98 -21
-269 2 -366 19 -79 22 -112 12 -122 -8 -8 -103 -29 -310 -68 -284 -55 -384
-96 -505 -211 -143 -135 -213 -323 -212 -574 0 -255 64 -434 202 -567 61 -58
139 -110 217 -143 29 -13 58 -32 64 -44 17 -31 11 -384 -7 -412 -8 -12 -34
-26 -62 -34 -26 -7 -86 -31 -133 -53 -186 -88 -313 -272 -361 -524 -17 -89 -6
-318 19 -408 73 -260 203 -409 436 -494 38 -15 71 -31 73 -37 2 -6 -18 -25
-45 -43 -69 -44 -172 -154 -220 -236 -88 -150 -124 -334 -104 -529 16 -149 35
-224 88 -334 72 -149 202 -265 357 -316 27 -9 110 -30 185 -47 76 -16 295 -68
487 -114 355 -85 756 -179 1500 -351 226 -53 516 -120 645 -150 129 -30 287
-66 350 -80 l115 -25 135 30 c74 16 279 62 455 101 176 39 516 114 755 165
1311 283 1619 353 1679 382 19 10 46 34 59 53 20 29 23 45 20 95 -4 74 -22
100 -100 150 -181 116 -258 336 -199 567 36 140 89 220 204 308 56 44 75 65
85 96 17 55 -1 111 -44 136 -18 10 -145 41 -289 70 -157 31 -265 58 -277 68
-19 15 -21 28 -21 208 -1 233 -5 226 141 267 246 69 346 106 383 144 73 73 74
168 3 239 -33 33 -37 34 -92 29 -31 -3 -159 -35 -284 -71 -124 -36 -372 -107
-550 -157 -1192 -334 -1176 -331 -1243 -289 -42 26 -102 113 -121 176 -52 171
-15 351 96 468 91 96 148 117 795 291 176 48 478 128 670 180 514 138 637 172
665 183 40 16 69 55 78 103 5 24 23 64 40 88 79 108 55 194 -72 258 -143 73
-228 224 -229 408 -1 161 55 297 168 410 91 91 105 112 105 160 0 53 -28 97
-76 117 -21 10 -124 33 -229 52 -116 22 -195 42 -205 51 -12 13 -16 58 -20
269 l-5 253 -29 42 c-21 30 -26 45 -18 53 6 6 135 39 287 75 152 35 292 70
311 78 53 22 76 68 72 142 -4 72 -18 92 -109 154 -106 72 -166 165 -195 299
-44 210 49 434 233 562 81 55 98 142 41 203 -37 39 -26 36 -504 159 -271 70
-442 118 -1571 437 -713 201 -1045 289 -1108 294 -41 3 -97 -3 -175 -20z
m-2283 -882 c17 -8 34 -21 37 -30 3 -8 -10 -41 -29 -72 -46 -74 -90 -188 -105
-271 -16 -86 -17 -244 -1 -353 9 -62 10 -92 3 -99 -8 -8 -40 -1 -108 23 -113
39 -124 51 -151 169 -35 156 -14 360 52 489 28 56 86 125 119 143 54 29 121
29 183 1z m838 -226 c187 -53 464 -130 615 -172 344 -96 352 -98 363 -116 7
-12 -1 -35 -33 -89 -54 -92 -94 -203 -110 -303 -12 -74 -9 -237 6 -364 6 -49
5 -53 -15 -53 -11 0 -155 40 -318 89 -164 50 -451 135 -638 191 -374 110 -408
122 -436 158 -31 40 -60 149 -66 252 -11 185 47 360 154 461 51 48 57 51 96
47 23 -3 195 -48 382 -101z m4371 -133 c-57 -126 -76 -195 -76 -272 0 -55 -17
-85 -57 -100 -15 -6 -183 -45 -373 -88 -309 -70 -348 -81 -372 -105 -16 -15
-28 -37 -28 -49 0 -34 44 -70 84 -70 31 0 259 50 614 135 86 21 119 25 135 17
13 -6 41 -48 67 -97 34 -68 42 -90 33 -103 -11 -19 17 -12 -1368 -321 -467
-105 -899 -202 -960 -216 -180 -41 -251 -32 -327 43 -59 56 -53 66 45 87 353
75 492 107 516 120 31 15 41 33 41 70 0 25 -42 65 -69 65 -9 0 -146 -27 -305
-60 -159 -33 -300 -60 -312 -60 -29 0 -41 22 -50 88 -8 63 9 95 58 110 18 6
154 37 301 68 148 32 281 66 298 76 23 14 29 25 29 53 0 39 -28 75 -59 75 -11
0 -133 -22 -273 -50 -139 -27 -263 -50 -275 -50 -35 0 -28 28 22 93 56 71 112
112 179 132 28 9 395 88 816 176 421 88 965 202 1210 254 391 82 498 103 507
100 2 -1 -21 -55 -51 -121z m-3002 -245 c79 -23 96 -34 96 -58 0 -9 -22 -59
-49 -111 -90 -174 -121 -327 -101 -495 6 -53 18 -118 25 -143 23 -75 7 -82
-107 -51 -47 12 -106 63 -124 105 -42 101 -49 317 -14 449 36 135 147 325 190
325 7 0 45 -9 84 -21z m-1337 -1014 c1068 -365 993 -337 993 -378 0 -12 -10
-47 -22 -77 -18 -45 -22 -77 -22 -170 -1 -99 -3 -115 -18 -118 -9 -2 -97 26
-195 61 -98 36 -405 146 -683 245 -721 258 -747 268 -776 287 -61 39 -91 191
-60 299 14 48 44 96 60 96 3 0 328 -110 723 -245z m3858 -141 c14 -14 16 -39
13 -175 -2 -99 -7 -162 -14 -169 -6 -6 -328 -92 -715 -190 -387 -98 -829 -210
-983 -249 -253 -65 -287 -72 -380 -72 -119 -1 -198 16 -319 66 -68 29 -96 47
-127 82 -65 74 -86 181 -55 274 17 50 58 99 82 99 9 0 105 -29 214 -65 156
-51 209 -65 258 -65 46 0 286 56 999 234 515 129 948 236 962 239 45 8 48 7
65 -9z m-4899 -768 c170 -52 536 -163 814 -246 713 -214 699 -210 704 -218 2
-4 -9 -37 -25 -74 -48 -110 -63 -181 -63 -313 -1 -66 2 -139 7 -163 13 -73 94
-93 -883 213 -217 68 -514 160 -659 204 -178 55 -274 89 -297 106 -101 77
-122 306 -43 475 39 84 64 110 105 110 17 0 170 -42 340 -94z m5368 25 c10
-15 -51 -127 -85 -155 -44 -37 -61 -43 -219 -76 -200 -43 -560 -130 -598 -145
-75 -32 -56 -145 25 -145 12 0 154 32 315 71 360 86 414 98 426 90 13 -8 25
-85 17 -110 -8 -26 -22 -30 -383 -112 -174 -39 -325 -75 -335 -80 -74 -40 -46
-139 40 -139 32 0 251 49 515 116 183 46 182 46 214 -18 15 -29 40 -73 57 -97
52 -76 119 -53 -723 -250 -2133 -498 -1961 -461 -2029 -426 -18 9 -50 34 -71
56 -82 85 -120 186 -120 321 0 70 2 79 23 93 12 8 92 30 177 49 867 196 957
217 980 234 49 37 35 113 -24 128 -13 3 -119 -17 -237 -45 -526 -123 -852
-192 -862 -182 -24 24 121 180 209 224 52 26 76 31 1669 387 495 111 914 205
930 210 40 11 83 12 89 1z m-3089 -402 c24 -6 51 -19 59 -28 14 -15 14 -19 -2
-42 -9 -14 -40 -60 -69 -103 -170 -253 -191 -620 -50 -889 36 -68 31 -78 -43
-85 -47 -4 -52 -3 -84 31 -41 43 -110 182 -130 261 -9 32 -21 96 -27 142 -29
218 71 535 210 668 64 60 69 62 136 45z m-2266 -735 c124 -36 438 -129 696
-206 259 -76 675 -200 925 -275 250 -74 535 -159 633 -189 191 -58 221 -61
354 -42 56 8 86 9 93 2 7 -7 4 -29 -10 -68 -27 -81 -41 -202 -33 -305 3 -55 2
-90 -4 -94 -6 -4 -185 48 -399 114 -323 99 -1438 436 -2272 685 -107 32 -205
66 -218 77 -24 18 -24 21 -24 181 0 150 6 186 28 186 3 0 106 -30 231 -66z
m3390 -560 c17 -4 31 -11 31 -17 0 -6 -18 -37 -40 -69 -51 -72 -94 -164 -117
-248 -26 -98 -23 -331 5 -425 28 -94 19 -102 -67 -68 -131 53 -171 125 -171
308 0 161 41 280 137 400 88 109 138 135 222 119z m-3424 -195 c171 -50 486
-141 700 -204 888 -258 1051 -307 1073 -321 28 -19 25 -32 -34 -134 -84 -147
-121 -305 -110 -480 6 -103 20 -179 47 -253 17 -47 5 -63 -37 -46 -32 12 -971
333 -1584 541 -212 72 -397 137 -412 144 -46 24 -77 65 -107 144 -73 190 -65
433 20 602 38 76 61 98 102 98 18 0 172 -41 342 -91z m2231 -662 l27 -24 -18
-34 c-95 -184 -121 -257 -137 -386 -15 -117 -1 -243 42 -375 24 -76 27 -95 16
-106 -9 -9 -20 -10 -37 -4 -34 14 -53 38 -82 107 -86 205 -80 479 14 668 47
96 111 175 141 177 4 0 19 -10 34 -23z m2672 -202 c3 -156 0 -180 -25 -190
-10 -3 -198 -56 -418 -116 -1874 -515 -1744 -481 -1785 -474 -112 21 -206 126
-246 280 -18 66 -17 225 1 303 29 122 115 252 178 267 20 5 138 -25 435 -110
458 -133 522 -147 607 -139 33 3 227 52 430 109 204 58 458 129 565 159 107
30 209 54 225 53 l30 -2 3 -140z m-4631 -605 c1730 -455 1735 -456 1743 -471
5 -8 -5 -38 -25 -79 -69 -136 -80 -188 -80 -360 1 -114 5 -171 18 -216 23 -82
22 -104 -2 -104 -11 0 -242 54 -513 121 -271 66 -740 181 -1043 255 -588 144
-648 164 -705 232 -84 102 -103 315 -45 508 33 112 134 224 202 224 17 0 220
-49 450 -110z m5149 -3 c2 -7 -13 -51 -35 -97 -41 -89 -71 -208 -71 -283 0
-80 2 -79 -358 -157 -179 -38 -338 -77 -355 -87 -65 -38 -39 -133 36 -133 18
0 136 23 262 51 375 82 399 87 420 79 11 -4 35 -37 55 -76 19 -39 43 -82 54
-97 10 -15 16 -33 13 -40 -3 -9 -117 -38 -314 -81 -169 -37 -469 -103 -665
-147 -974 -215 -1561 -339 -1604 -339 -100 0 -212 111 -141 140 12 5 119 30
237 55 351 76 469 106 492 124 28 24 28 75 0 104 -27 26 -25 26 -473 -69 -223
-48 -317 -64 -328 -57 -17 10 -28 115 -17 159 8 30 60 49 216 79 250 48 515
107 541 121 45 23 52 73 17 111 -33 35 2 40 -595 -90 -95 -21 -114 -23 -124
-11 -9 11 -3 26 30 69 53 71 126 128 195 154 30 11 216 54 413 95 855 178
1263 264 1643 346 223 49 415 89 428 89 12 1 25 -5 28 -12z"/>
</g>
</svg>
